<svg width="780" height="440" viewBox="0 0 780 440" fill="none" xmlns="http://www.w3.org/2000/svg">
<g clip-path="url(#clip0)">
<path d="M718.684 438.213C730.096 438.213 739.347 436.672 739.347 434.772C739.347 432.872 730.096 431.332 718.684 431.332C707.273 431.332 698.022 432.872 698.022 434.772C698.022 436.672 707.273 438.213 718.684 438.213Z" fill="#F2F2F2"/>
<path d="M742.79 106.22H741.068V142.344H742.79V106.22Z" fill="#F2F2F2"/>
<path d="M723.85 82.9981H713.519V439.073H723.85V82.9981Z" fill="#F2F2F2"/>
<path d="M765.982 110.951H671.387C670.349 110.951 669.324 110.73 668.378 110.304C667.432 109.878 666.588 109.256 665.901 108.478C665.214 107.701 664.701 106.787 664.395 105.797C664.089 104.806 663.997 103.762 664.126 102.733L676.179 6.40401C676.402 4.6369 677.263 3.0118 678.599 1.83299C679.936 0.654191 681.657 0.00251971 683.44 0H753.929C755.712 0.00251946 757.433 0.654191 758.769 1.83299C760.106 3.0118 760.966 4.6369 761.19 6.40401L773.243 102.733C773.372 103.762 773.28 104.806 772.974 105.797C772.668 106.787 772.155 107.701 771.468 108.478C770.781 109.256 769.937 109.878 768.991 110.304C768.045 110.73 767.019 110.951 765.982 110.951Z" fill="#F2F2F2"/>
<path d="M741.929 148.364C745.258 148.364 747.956 145.669 747.956 142.344C747.956 139.019 745.258 136.323 741.929 136.323C738.601 136.323 735.903 139.019 735.903 142.344C735.903 145.669 738.601 148.364 741.929 148.364Z" fill="#F2F2F2"/>
<path d="M108.098 343.487C103.749 358.561 91.0487 369.113 77.801 378.077C75.9513 379.329 74.1009 380.552 72.25 381.746C72.2375 381.751 72.2246 381.763 72.2119 381.769C72.1228 381.826 72.0336 381.883 71.9506 381.941C71.5686 382.187 71.1865 382.433 70.8076 382.676L71.0157 382.769C71.0157 382.769 71.2201 382.878 70.9965 382.787C70.93 382.759 70.8603 382.734 70.7939 382.706C63.0978 379.605 55.265 376.276 49.3671 370.467C43.2489 364.434 39.6735 354.973 42.9864 347.048C43.4219 346.01 43.9719 345.024 44.6263 344.108C44.8951 343.724 45.1845 343.356 45.4858 342.995C47.3133 340.767 49.7018 339.065 52.4057 338.065C55.1097 337.065 58.0316 336.802 60.8709 337.304C63.7102 337.806 66.3645 339.054 68.5608 340.92C70.7571 342.787 72.4162 345.204 73.3675 347.923C74.3407 338.87 66.8685 331.287 59.6776 325.692C52.4834 320.099 44.3089 314.009 42.9181 305.006C42.1414 299.997 43.885 295.143 47.0611 291.246C47.1594 291.128 47.2576 291.009 47.3589 290.894C51.2252 286.356 56.663 283.441 62.5863 282.733C73.6175 281.588 84.3327 287.421 92.3466 295.083C105.245 307.411 113.043 326.347 108.098 343.487Z" fill="#F2F2F2"/>
<path d="M87.3634 323.77C89.4806 327.061 91.106 330.642 92.1885 334.401C93.1039 337.761 93.5113 341.239 93.3972 344.719C93.1019 351.881 91.0894 358.867 87.5289 365.09C84.8469 369.811 81.5783 374.175 77.801 378.077C75.9512 379.329 74.1009 380.552 72.25 381.746C72.2375 381.751 72.2246 381.763 72.2119 381.769C72.1228 381.826 72.0336 381.883 71.9506 381.941C71.5686 382.187 71.1865 382.433 70.8076 382.676C70.8076 382.676 71.2201 382.878 70.9965 382.787C70.93 382.759 70.8603 382.734 70.7939 382.706C71.4836 377.056 70.8079 371.324 68.8233 365.989C66.8387 360.654 63.603 355.872 59.3874 352.043C55.1617 348.273 50.1039 345.554 44.6263 344.108C44.8951 343.724 45.1845 343.356 45.4858 342.995C47.6013 343.588 49.6603 344.366 51.6386 345.321C58.7103 348.714 64.5007 354.291 68.1527 361.227C71.4299 367.525 72.8404 374.627 72.2185 381.698C72.5347 381.412 72.8513 381.119 73.1583 380.83C79.0065 375.383 84.2009 369.13 87.7162 361.915C90.766 355.804 92.265 349.038 92.081 342.213C91.7941 334.77 88.8258 327.876 84.5282 321.875C79.8179 315.472 74.2534 309.743 67.9893 304.847C61.6765 299.795 54.7687 295.535 47.4199 292.16C47.2541 292.083 47.1245 291.945 47.0577 291.775C46.9909 291.604 46.9922 291.415 47.0612 291.246C47.1102 291.094 47.2172 290.968 47.359 290.894C47.4319 290.863 47.511 290.848 47.5904 290.852C47.6697 290.855 47.7473 290.876 47.8173 290.914C48.7247 291.331 49.6257 291.754 50.5195 292.195C57.9641 295.871 64.9227 300.457 71.2355 305.847C77.3333 311.041 83.074 316.974 87.3634 323.77Z" fill="white"/>
<path d="M45.3065 381.447H92.9706C93.4934 381.447 94.0103 381.558 94.4868 381.773C94.9634 381.988 95.3889 382.301 95.7349 382.693C96.0809 383.085 96.3396 383.545 96.4938 384.044C96.648 384.543 96.6942 385.07 96.6294 385.588L90.5562 434.126C90.4435 435.016 90.0098 435.835 89.3363 436.429C88.6628 437.023 87.7957 437.351 86.8973 437.353H51.3797C50.4813 437.351 49.6142 437.023 48.9407 436.429C48.2673 435.835 47.8336 435.016 47.7209 434.126L41.6477 385.588C41.5828 385.07 41.629 384.543 41.7832 384.044C41.9375 383.545 42.1962 383.085 42.5422 382.693C42.8882 382.301 43.3136 381.988 43.7902 381.773C44.2668 381.558 44.7837 381.447 45.3065 381.447Z" fill="#F2F2F2"/>
<path d="M200.715 437.726C204.009 437.726 206.68 435.058 206.68 431.767C206.68 428.475 204.009 425.807 200.715 425.807C197.42 425.807 194.75 428.475 194.75 431.767C194.75 435.058 197.42 437.726 200.715 437.726Z" fill="#CCCCCC"/>
<path d="M577.512 437.726C580.806 437.726 583.477 435.058 583.477 431.767C583.477 428.475 580.806 425.807 577.512 425.807C574.217 425.807 571.547 428.475 571.547 431.767C571.547 435.058 574.217 437.726 577.512 437.726Z" fill="#CCCCCC"/>
<path d="M310.075 348.833H216.622C212.273 348.828 208.103 347.1 205.028 344.028C201.952 340.956 200.223 336.79 200.218 332.445V268.88C200.223 264.535 201.952 260.369 205.028 257.297C208.103 254.225 212.273 252.496 216.622 252.492H310.075C314.425 252.496 318.594 254.225 321.669 257.297C324.745 260.369 326.475 264.535 326.479 268.88V332.445C326.475 336.79 324.745 340.956 321.669 344.028C318.594 347.1 314.425 348.828 310.075 348.833Z" fill="#E6E6E6"/>
<path d="M435.84 349.33H342.386C338.037 349.325 333.868 347.597 330.792 344.524C327.717 341.452 325.987 337.287 325.982 332.942V269.376C325.987 265.031 327.717 260.866 330.792 257.794C333.868 254.721 338.037 252.993 342.386 252.988H435.84C440.189 252.993 444.359 254.721 447.434 257.794C450.509 260.866 452.239 265.031 452.244 269.376V332.942C452.239 337.287 450.509 341.452 447.434 344.524C444.359 347.597 440.189 349.325 435.84 349.33Z" fill="#E6E6E6"/>
<path d="M561.605 349.826H468.151C463.802 349.822 459.632 348.093 456.557 345.021C453.482 341.949 451.752 337.783 451.747 333.438V269.873C451.752 265.528 453.482 261.362 456.557 258.29C459.632 255.218 463.802 253.49 468.151 253.485H561.605C565.954 253.49 570.123 255.218 573.199 258.29C576.274 261.362 578.004 265.528 578.009 269.873V333.438C578.004 337.783 576.274 341.949 573.199 345.021C570.123 348.093 565.954 349.822 561.605 349.826Z" fill="#E6E6E6"/>
<path d="M597.395 345.357H185.802V431.27H597.395V345.357Z" fill="#E6E6E6"/>
<path d="M200.715 431.767H182.819C173.774 431.767 166.415 423.419 166.415 413.159V323.506H200.715V431.767Z" fill="#E6E6E6"/>
<path d="M595.407 431.767H577.512V309.601H611.811V410.769C611.811 422.347 604.452 431.767 595.407 431.767Z" fill="#E6E6E6"/>
<path d="M326.977 363.235H200.715V336.418C242.802 312.299 284.889 312.299 326.977 336.418V363.235Z" fill="#CCCCCC"/>
<path d="M452.741 363.731H326.479V336.915C368.567 312.796 410.654 312.796 452.741 336.915V363.731Z" fill="#CCCCCC"/>
<path d="M578.506 364.228H452.244V337.411C494.331 313.293 536.419 313.293 578.506 337.411V364.228Z" fill="#CCCCCC"/>
<path d="M176.357 346.35C192.555 346.35 205.686 333.232 205.686 317.05C205.686 300.869 192.555 287.751 176.357 287.751C160.16 287.751 147.029 300.869 147.029 317.05C147.029 333.232 160.16 346.35 176.357 346.35Z" fill="#CCCCCC"/>
<path d="M605.846 345.357C622.044 345.357 635.174 332.239 635.174 316.057C635.174 299.875 622.044 286.757 605.846 286.757C589.648 286.757 576.517 299.875 576.517 316.057C576.517 332.239 589.648 345.357 605.846 345.357Z" fill="#CCCCCC"/>
<path d="M519.452 258.657C519.52 259.128 519.551 259.603 519.544 260.079L554.7 284.285L564.075 279.851L572.622 293.112L556.789 302.572C555.51 303.336 554.017 303.666 552.535 303.51C551.052 303.355 549.66 302.723 548.568 301.71L512.965 268.698C511.198 269.195 509.322 269.143 507.586 268.548C505.85 267.953 504.336 266.845 503.246 265.37C502.156 263.895 501.542 262.124 501.484 260.291C501.426 258.459 501.928 256.652 502.924 255.112C503.919 253.571 505.36 252.37 507.055 251.668C508.75 250.965 510.619 250.795 512.414 251.18C514.208 251.565 515.843 252.487 517.1 253.822C518.357 255.158 519.178 256.844 519.452 258.657V258.657Z" fill="#FFB8B8"/>
<path d="M555.377 282.202C555.532 281.668 555.8 281.173 556.163 280.752C556.527 280.331 556.977 279.993 557.483 279.761L575.16 271.67C577.547 270.117 580.453 269.574 583.241 270.158C586.028 270.743 588.47 272.408 590.031 274.788C591.592 277.168 592.144 280.07 591.567 282.856C590.989 285.643 589.329 288.087 586.951 289.653L572.337 302.562C571.92 302.931 571.429 303.205 570.896 303.366C570.363 303.528 569.802 303.573 569.25 303.498C568.699 303.423 568.17 303.23 567.699 302.933C567.229 302.635 566.828 302.24 566.524 301.774L555.851 285.391C555.547 284.924 555.347 284.398 555.266 283.848C555.184 283.298 555.222 282.737 555.377 282.202Z" fill="#F9A826"/>
<path d="M519.009 260.234L518.832 260.247L518.35 253.586C518.196 251.456 516.817 249.821 515.271 249.933L505.02 250.674C503.474 250.785 500.628 252.726 500.782 254.856L500.906 256.571L503.429 291.401C503.583 293.53 506.679 295.042 508.226 294.93L518.476 294.189C520.023 294.077 521.151 292.26 520.997 290.131L519.176 264.989L519.353 264.976L519.009 260.234Z" fill="#3F3D56"/>
<path d="M517.756 253.656L520.399 290.147C520.514 291.738 519.671 293.094 518.516 293.178L508.217 293.922C507.062 294.006 506.032 292.784 505.917 291.194L503.274 254.702C503.159 253.112 504.002 251.755 505.157 251.672L506.406 251.582C506.32 251.906 506.338 252.25 506.46 252.563C506.581 252.877 506.799 253.144 507.081 253.326C507.2 253.383 507.331 253.408 507.463 253.4L513.335 252.975C513.884 252.935 514.284 252.29 514.229 251.534C514.217 251.359 514.179 251.188 514.118 251.024L515.456 250.927C516.611 250.844 517.641 252.065 517.756 253.656Z" fill="white"/>
<path d="M373.264 337.918L369.867 327.935L406.796 310.094L411.81 324.829L373.264 337.918Z" fill="#FFB8B8"/>
<path d="M364.444 343.755L353.49 311.564L353.898 311.426C355.545 310.866 357.286 310.637 359.022 310.749C360.758 310.862 362.455 311.316 364.015 312.083C365.576 312.851 366.97 313.919 368.117 315.225C369.265 316.531 370.143 318.05 370.703 319.696L370.704 319.696L377.394 339.357L364.444 343.755Z" fill="#2F2E41"/>
<path d="M519.83 345.043C511.91 345.488 504.013 343.836 496.936 340.255L453.512 310.743L402.807 329.5C401.462 329.957 399.992 329.888 398.696 329.305C397.399 328.722 396.373 327.669 395.823 326.359L393.338 320.387C392.771 319.044 392.755 317.532 393.292 316.177C393.83 314.822 394.879 313.732 396.213 313.142L444.654 291.409C450.47 288.809 456.994 288.245 463.171 289.809L530.42 306.929L548.196 328.018L547.998 328.29C539.272 340.318 528.921 344.386 519.83 345.043Z" fill="#2F2E41"/>
<path d="M574.752 256.919C586.431 256.919 595.898 247.461 595.898 235.794C595.898 224.127 586.431 214.669 574.752 214.669C563.074 214.669 553.607 224.127 553.607 235.794C553.607 247.461 563.074 256.919 574.752 256.919Z" fill="#FFB8B8"/>
<path d="M553.047 337.421L519.015 312.12L542.224 295.641C541.56 293.507 538.615 281.304 554.721 272.986C559.819 270.353 563.493 268.087 565.639 266.25C568.684 263.626 572.584 262.205 576.605 262.254C579.14 262.294 581.63 262.923 583.88 264.091C586.129 265.259 588.075 266.934 589.565 268.983C591.054 271.033 592.045 273.4 592.46 275.899C592.876 278.397 592.703 280.958 591.956 283.378C588.598 294.284 583.248 308.735 576.834 315.647C569.578 323.455 561.71 330.672 553.304 337.228L553.047 337.421Z" fill="#F9A826"/>
<path d="M378.661 346.765L375.263 336.781L412.192 318.941L417.206 333.675L378.661 346.765Z" fill="#FFB8B8"/>
<path d="M369.84 352.601L358.887 320.411L359.294 320.272C360.941 319.713 362.682 319.483 364.418 319.596C366.154 319.709 367.851 320.162 369.411 320.93C370.972 321.698 372.366 322.765 373.513 324.071C374.661 325.377 375.54 326.897 376.1 328.542L376.1 328.543L382.79 348.204L369.84 352.601Z" fill="#2F2E41"/>
<path d="M525.226 353.89C517.306 354.334 509.409 352.682 502.332 349.101L458.908 319.589L408.204 338.347C406.858 338.804 405.388 338.734 404.092 338.151C402.795 337.568 401.769 336.515 401.219 335.205L398.734 329.234C398.167 327.891 398.151 326.379 398.689 325.024C399.226 323.669 400.275 322.579 401.609 321.988L450.05 300.255C455.867 297.656 462.39 297.092 468.567 298.655L535.816 315.775L553.592 336.865L553.394 337.137C544.668 349.164 534.317 353.233 525.226 353.89Z" fill="#2F2E41"/>
<path d="M515.466 283.997C515.729 284.394 515.961 284.81 516.159 285.243L558.303 292.082L564.875 284.065L578.282 292.392L568.028 307.714C567.2 308.952 565.992 309.888 564.586 310.381C563.179 310.875 561.651 310.9 560.23 310.451L513.907 295.847C512.523 297.051 510.805 297.806 508.982 298.012C507.158 298.217 505.315 297.863 503.698 296.996C502.081 296.129 500.766 294.791 499.928 293.16C499.091 291.529 498.77 289.681 499.01 287.863C499.249 286.046 500.036 284.344 501.267 282.984C502.498 281.624 504.114 280.671 505.901 280.251C507.687 279.832 509.559 279.965 511.268 280.634C512.977 281.304 514.441 282.476 515.466 283.997Z" fill="#FFB8B8"/>
<path d="M558.022 289.91C557.933 289.361 557.963 288.799 558.111 288.263C558.259 287.726 558.521 287.228 558.879 286.803L571.387 271.929C572.878 269.505 575.272 267.771 578.041 267.107C580.811 266.443 583.731 266.903 586.162 268.386C588.592 269.87 590.335 272.256 591.008 275.021C591.68 277.786 591.227 280.705 589.749 283.137L582.075 301.054C581.856 301.566 581.529 302.024 581.117 302.398C580.705 302.771 580.217 303.052 579.686 303.22C579.156 303.389 578.595 303.441 578.042 303.373C577.49 303.306 576.958 303.12 576.484 302.828L559.817 292.588C559.343 292.297 558.937 291.907 558.627 291.445C558.317 290.982 558.111 290.459 558.022 289.91Z" fill="#F9A826"/>
<path d="M569.099 259.059C575.243 251.161 578.651 241.482 578.807 231.481C575.915 233.628 572.641 235.208 569.159 236.136C565.465 237.119 561.403 237.317 557.923 235.734C553.026 233.505 550.129 227.821 550.685 222.473C551.241 217.126 554.94 212.349 559.757 209.95C564.687 207.647 570.311 207.307 575.483 208.999C578.22 206.671 581.57 205.18 585.133 204.705C588.696 204.23 592.32 204.791 595.572 206.321C603.057 209.991 607.196 218.49 607.914 226.788C608.632 235.087 606.498 243.338 604.382 251.394L604.143 252.305C603.484 254.813 601.57 259.625 601.57 259.625C601.57 259.625 590.45 257.433 586.032 256.028C579.629 258.34 569.099 259.059 569.099 259.059Z" fill="#2F2E41"/>
<path d="M516.094 261.083L507.034 261.738C506.806 261.755 506.581 261.68 506.408 261.531C506.236 261.382 506.129 261.17 506.113 260.943C506.096 260.715 506.171 260.49 506.32 260.318C506.47 260.145 506.682 260.039 506.909 260.023L515.969 259.368C516.082 259.359 516.196 259.373 516.303 259.409C516.411 259.444 516.51 259.5 516.596 259.574C516.682 259.648 516.752 259.738 516.803 259.839C516.854 259.94 516.884 260.051 516.892 260.163C516.9 260.276 516.886 260.389 516.85 260.497C516.815 260.604 516.758 260.703 516.684 260.789C516.61 260.874 516.519 260.944 516.418 260.995C516.317 261.045 516.207 261.075 516.094 261.083Z" fill="#3F3D56"/>
<path d="M516.404 265.373L507.344 266.028C507.231 266.036 507.118 266.022 507.01 265.987C506.903 265.951 506.803 265.895 506.718 265.821C506.632 265.747 506.562 265.657 506.511 265.556C506.46 265.455 506.43 265.345 506.422 265.232C506.413 265.119 506.428 265.006 506.463 264.898C506.499 264.791 506.556 264.692 506.63 264.606C506.704 264.521 506.794 264.451 506.896 264.4C506.997 264.35 507.107 264.32 507.22 264.312L516.28 263.657C516.508 263.64 516.733 263.715 516.906 263.864C517.078 264.014 517.185 264.225 517.201 264.453C517.217 264.68 517.143 264.905 516.993 265.077C516.844 265.25 516.632 265.356 516.404 265.373Z" fill="#3F3D56"/>
<path d="M516.715 269.662L507.655 270.317C507.427 270.333 507.203 270.258 507.031 270.109C506.858 269.959 506.752 269.748 506.736 269.521C506.72 269.294 506.794 269.069 506.943 268.897C507.092 268.724 507.303 268.618 507.531 268.601L516.591 267.946C516.819 267.93 517.044 268.004 517.216 268.153C517.389 268.303 517.495 268.514 517.512 268.742C517.528 268.969 517.453 269.194 517.304 269.367C517.155 269.539 516.943 269.645 516.715 269.662Z" fill="#3F3D56"/>
<path d="M779.139 439.073H0.860927C0.632595 439.073 0.413614 438.982 0.252159 438.821C0.0907039 438.66 0 438.441 0 438.213C0 437.985 0.0907039 437.766 0.252159 437.605C0.413614 437.443 0.632595 437.353 0.860927 437.353H779.139C779.367 437.353 779.586 437.443 779.748 437.605C779.909 437.766 780 437.985 780 438.213C780 438.441 779.909 438.66 779.748 438.821C779.586 438.982 779.367 439.073 779.139 439.073Z" fill="#3F3D56"/>
<path d="M413.916 152.665H326.963C324.908 152.663 322.939 151.846 321.486 150.395C320.034 148.944 319.217 146.976 319.214 144.924V70.0968C319.217 68.0446 320.034 66.077 321.486 64.6259C322.939 63.1747 324.908 62.3584 326.963 62.3561H413.916C415.97 62.3584 417.94 63.1747 419.392 64.6259C420.845 66.0771 421.662 68.0446 421.664 70.0968V144.924C421.662 146.976 420.845 148.944 419.392 150.395C417.94 151.846 415.97 152.663 413.916 152.665ZM326.963 64.0762C325.365 64.078 323.833 64.7129 322.703 65.8416C321.573 66.9703 320.938 68.5006 320.936 70.0968V144.924C320.938 146.52 321.573 148.051 322.703 149.179C323.833 150.308 325.365 150.943 326.963 150.945H413.916C415.514 150.943 417.046 150.308 418.176 149.179C419.305 148.051 419.941 146.52 419.943 144.924V70.0968C419.941 68.5006 419.305 66.9703 418.176 65.8416C417.046 64.7129 415.514 64.078 413.916 64.0762H326.963Z" fill="#F2F2F2"/>
<path d="M401.203 141.054H339.676C337.736 141.052 335.876 140.281 334.504 138.91C333.132 137.54 332.36 135.681 332.358 133.743V81.2779C332.36 79.3397 333.132 77.4815 334.504 76.1109C335.876 74.7403 337.736 73.9694 339.676 73.9672H401.203C403.143 73.9694 405.003 74.7403 406.375 76.1109C407.747 77.4815 408.519 79.3397 408.521 81.2779V133.743C408.519 135.681 407.747 137.54 406.375 138.91C405.003 140.281 403.143 141.052 401.203 141.054Z" fill="#E6E6E6"/>
<path d="M370.87 51.175C373.247 51.175 375.174 49.2496 375.174 46.8746C375.174 44.4995 373.247 42.5742 370.87 42.5742C368.492 42.5742 366.565 44.4995 366.565 46.8746C366.565 49.2496 368.492 51.175 370.87 51.175Z" fill="#F2F2F2"/>
<path d="M379.92 63.6582L370.872 48.5526L361.875 63.6557L360.395 62.7766L370.868 45.1965L381.398 62.7741L379.92 63.6582Z" fill="#F2F2F2"/>
<path d="M380.77 101.49C380.768 100.188 380.625 98.8905 380.344 97.6195H367.426C366.513 97.6195 365.637 97.982 364.991 98.6272C364.345 99.2724 363.982 100.147 363.982 101.06V119.487C368.54 119.163 372.806 117.127 375.921 113.788C379.036 110.449 380.769 106.054 380.77 101.49Z" fill="#F9A826"/>
<path d="M362.691 120.412C359.119 120.413 355.619 119.405 352.595 117.504C349.572 115.603 347.148 112.886 345.604 109.668C344.06 106.45 343.459 102.861 343.869 99.3157C344.28 95.7705 345.685 92.4135 347.924 89.6323C350.163 86.8511 353.143 84.7591 356.521 83.5978C359.899 82.4365 363.537 82.2533 367.015 83.0692C370.492 83.8852 373.668 85.6671 376.175 88.2092C378.683 90.7513 380.419 93.95 381.185 97.436L381.413 98.4796H367.426C366.741 98.4804 366.085 98.7525 365.601 99.2362C365.116 99.7199 364.844 100.376 364.843 101.06V120.288L363.894 120.355C363.495 120.384 363.097 120.412 362.691 120.412ZM362.691 84.2882C358.124 84.2882 353.745 86.1006 350.516 89.3265C347.286 92.5524 345.472 96.9277 345.472 101.49C345.472 106.052 347.286 110.427 350.516 113.653C353.745 116.879 358.124 118.692 362.691 118.692C362.835 118.692 362.979 118.687 363.121 118.681V101.06C363.123 99.9197 363.577 98.8267 364.384 98.0205C365.191 97.2143 366.285 96.7608 367.426 96.7594H379.239C378.196 93.1756 376.021 90.0248 373.039 87.7772C370.057 85.5296 366.427 84.3057 362.691 84.2882Z" fill="white"/>
<path d="M388.088 126.002H367.426C366.285 126.001 365.191 125.548 364.384 124.741C363.577 123.935 363.123 122.842 363.121 121.702V118.685L363.922 118.629C366.386 118.459 368.785 117.759 370.955 116.578C373.124 115.397 375.013 113.762 376.492 111.785C377.971 109.808 379.006 107.536 379.526 105.123C380.045 102.71 380.037 100.213 379.503 97.8035L379.274 96.7595H388.088C389.23 96.7608 390.324 97.2143 391.131 98.0205C391.938 98.8267 392.392 99.9197 392.393 101.06V121.702C392.392 122.842 391.938 123.935 391.131 124.741C390.324 125.548 389.23 126.001 388.088 126.002ZM364.843 120.271V121.702C364.844 122.386 365.116 123.042 365.601 123.526C366.085 124.009 366.741 124.281 367.426 124.282H388.088C388.773 124.281 389.43 124.009 389.914 123.526C390.398 123.042 390.67 122.386 390.671 121.702V101.06C390.67 100.376 390.398 99.7199 389.914 99.2362C389.43 98.7525 388.773 98.4804 388.088 98.4796H381.384C381.547 99.4748 381.63 100.481 381.631 101.49C381.616 106.13 379.899 110.603 376.805 114.063C373.712 117.524 369.456 119.732 364.843 120.271Z" fill="white"/>
</g>
<defs>
<clipPath id="clip0">
<rect width="780" height="439.073" fill="white"/>
</clipPath>
</defs>
</svg>
